<svg xmlns="http://www.w3.org/2000/svg" width="25" height="24" viewBox="0 0 25 24" fill="none">
  <path d="M12.5 21C12.3736 21.0012 12.2491 20.9689 12.1389 20.9062C11.7407 20.6812 2.5 15.3656 2.5 8.62499C2.5 7.4444 2.86687 6.29374 3.54865 5.336C4.23043 4.37826 5.19256 3.66199 6.29873 3.28866C7.40491 2.91532 8.59907 2.90385 9.71204 3.25586C10.825 3.60787 11.8004 4.30553 12.5 5.25C13.1996 4.30553 14.175 3.60787 15.288 3.25586C16.4009 2.90385 17.5951 2.91532 18.7013 3.28866C19.8074 3.66199 20.7696 4.37826 21.4513 5.336C22.1331 6.29374 22.5 7.4444 22.5 8.62499C22.5 11.4937 20.8611 14.4375 17.6296 17.3812C16.1623 18.7169 14.5645 19.8979 12.8611 20.9062C12.7509 20.9689 12.6264 21.0012 12.5 21ZM8.05556 4.5C6.97504 4.5 5.93879 4.93459 5.17475 5.70818C4.41071 6.48177 3.98148 7.53097 3.98148 8.62499C3.98148 13.8 10.8333 18.3468 12.5 19.3781C14.1667 18.3468 21.0185 13.8 21.0185 8.62499C21.0194 7.67139 20.6939 6.74694 20.0974 6.00894C19.501 5.27093 18.6704 4.76495 17.7471 4.57708C16.8237 4.38921 15.8646 4.53107 15.0328 4.97851C14.2011 5.42595 13.5482 6.15133 13.1852 7.03124C13.1294 7.1688 13.0344 7.28645 12.9124 7.36926C12.7904 7.45206 12.6469 7.49627 12.5 7.49627C12.3531 7.49627 12.2096 7.45206 12.0876 7.36926C11.9656 7.28645 11.8706 7.1688 11.8148 7.03124C11.5065 6.27962 10.9845 5.63771 10.3152 5.18703C9.64588 4.73634 8.85938 4.49721 8.05556 4.5Z" fill="#202020"/>
</svg>