<svg width="49" height="30" viewBox="0 0 49 30" fill="none" xmlns="http://www.w3.org/2000/svg">
<g id="mastercard">
<g id="Vector">
<path d="M48.9998 14.681C48.9998 22.7367 42.4414 29.3619 34.2998 29.3619C26.2337 29.3619 19.5998 22.7367 19.5998 14.681C19.5998 6.62525 26.1583 0 34.2244 0C42.4414 0 48.9998 6.62525 48.9998 14.681Z" fill="#F9B50B"/>
<path d="M29.3246 14.7562C29.3246 13.7022 29.1738 12.6482 29.0231 11.6695H19.9769C20.0523 11.1425 20.2031 10.6907 20.3538 10.0885H28.42C28.2692 9.56144 28.0431 9.03444 27.8169 8.50743H20.9569C21.1831 7.98042 21.4846 7.5287 21.7861 6.9264H26.9877C26.6861 6.39939 26.3092 5.87238 25.8569 5.34537H22.9923C23.4446 4.81837 23.8969 4.36664 24.5 3.83964C21.9369 1.43045 18.4692 0 14.6246 0C6.63384 0.225861 0 6.62525 0 14.681C0 22.7367 6.55846 29.3619 14.7 29.3619C18.5446 29.3619 21.9369 27.8562 24.5754 25.5223C25.1031 25.0706 25.5554 24.5436 26.0831 23.9413H23.0677C22.6908 23.4895 22.3138 22.9625 22.0123 22.4355H27.1385C27.44 21.9838 27.7415 21.4568 27.9677 20.8545H21.1077C20.8815 20.4028 20.6554 19.8758 20.5046 19.2735H28.5708C29.0231 17.9183 29.3246 16.4126 29.3246 14.7562Z" fill="#C8191C"/>
<path d="M19.9022 18.445L20.1284 17.0898C20.053 17.0898 19.9022 17.1651 19.7514 17.1651C19.2237 17.1651 19.1484 16.864 19.2237 16.7134L19.676 14.0031H20.5053L20.7314 12.4973H19.9776L20.1284 11.5939H18.5453C18.5453 11.5939 17.6407 16.7134 17.6407 17.3157C17.6407 18.2191 18.1684 18.6709 18.9222 18.6709C19.3745 18.6709 19.7514 18.5203 19.9022 18.445Z" fill="#F8F7F3"/>
<path d="M20.4297 15.9599C20.4297 18.1432 21.9374 18.6702 23.1435 18.6702C24.2743 18.6702 24.802 18.4444 24.802 18.4444L25.1035 16.9386C25.1035 16.9386 24.2743 17.3151 23.4451 17.3151C21.7112 17.3151 22.0128 16.0352 22.0128 16.0352H25.1789C25.1789 16.0352 25.4051 15.0564 25.4051 14.6047C25.4051 13.626 24.8774 12.3461 23.1435 12.3461C21.6358 12.2708 20.4297 14.0024 20.4297 15.9599ZM23.1435 13.7013C23.9728 13.7013 23.822 14.68 23.822 14.7553H22.0881C22.1635 14.68 22.3143 13.7013 23.1435 13.7013Z" fill="#F8F7F3"/>
<path d="M33.0176 18.4453L33.3192 16.7137C33.3192 16.7137 32.5653 17.0901 31.9622 17.0901C30.9069 17.0901 30.3792 16.262 30.3792 15.2832C30.3792 13.4011 31.2838 12.4223 32.4146 12.4223C33.1684 12.4223 33.8469 12.8741 33.8469 12.8741L34.073 11.2177C34.073 11.2177 33.1684 10.8413 32.2638 10.8413C30.4545 10.8413 28.7207 12.4223 28.7207 15.3585C28.7207 17.316 29.6253 18.5959 31.5099 18.5959C32.1884 18.6712 33.0176 18.4453 33.0176 18.4453Z" fill="#F8F7F3"/>
<path d="M11.3834 12.272C10.328 12.272 9.49874 12.5731 9.49874 12.5731L9.27259 13.9283C9.27259 13.9283 9.95105 13.6271 11.0064 13.6271C11.5341 13.6271 11.9864 13.7024 11.9864 14.1541C11.9864 14.4553 11.9111 14.5306 11.9111 14.5306H11.2326C9.87567 14.5306 8.44336 15.0576 8.44336 16.8645C8.44336 18.2949 9.34797 18.5961 9.95105 18.5961C11.0064 18.5961 11.5341 17.9185 11.6095 17.9185L11.5341 18.5208H12.8157L13.4187 14.2294C13.4187 12.3473 11.9111 12.272 11.3834 12.272ZM11.6849 15.7352C11.6849 15.961 11.5341 17.2409 10.6295 17.2409C10.1772 17.2409 10.0264 16.8645 10.0264 16.6386C10.0264 16.2622 10.2526 15.7352 11.4587 15.7352C11.6095 15.7352 11.6849 15.7352 11.6849 15.7352Z" fill="#F8F7F3"/>
<path d="M14.9256 18.5952C15.3026 18.5952 17.2626 18.6705 17.2626 16.5624C17.2626 14.605 15.3779 14.9814 15.3779 14.2285C15.3779 13.8521 15.6795 13.7015 16.2072 13.7015C16.4333 13.7015 17.2626 13.7768 17.2626 13.7768L17.4887 12.3464C17.4887 12.3464 16.961 12.1958 15.981 12.1958C14.8502 12.1958 13.6441 12.6475 13.6441 14.2285C13.6441 16.0354 15.6041 15.8849 15.6041 16.5624C15.6041 17.0142 15.0764 17.0895 14.6995 17.0895C14.021 17.0895 13.2672 16.8636 13.2672 16.8636L13.041 18.294C13.1918 18.4446 13.6441 18.5952 14.9256 18.5952Z" fill="#F8F7F3"/>
<path d="M45.9847 11.0666L45.6831 13.1746C45.6831 13.1746 45.0801 12.4218 44.1755 12.4218C42.7431 12.4218 41.537 14.1534 41.537 16.1861C41.537 17.466 42.1401 18.7459 43.497 18.7459C44.4016 18.7459 45.0047 18.1436 45.0047 18.1436L44.9293 18.6706H46.5124L47.6432 11.2172L45.9847 11.0666ZM45.2308 15.1321C45.2308 15.9602 44.8539 17.0896 43.9493 17.0896C43.4216 17.0896 43.1201 16.6378 43.1201 15.8097C43.1201 14.5298 43.6478 13.7769 44.4016 13.7769C44.9293 13.8522 45.2308 14.2286 45.2308 15.1321Z" fill="#F8F7F3"/>
<path d="M2.86316 18.5198L3.76778 12.9486L3.91855 18.5198H4.97393L7.00931 12.9486L6.18008 18.5198H7.83854L9.12008 11.0664H6.55701L4.97393 15.6589L4.89855 11.0664H2.63701L1.35547 18.5198H2.86316Z" fill="#F8F7F3"/>
<path d="M26.9878 18.5201C27.4401 15.9604 27.5154 13.8523 28.6462 14.2288C28.797 13.25 29.0231 12.7983 29.1739 12.4219H28.8724C28.1939 12.4219 27.5908 13.3253 27.5908 13.3253L27.7416 12.4972H26.2339L25.2539 18.5201H26.9878Z" fill="#F8F7F3"/>
<path d="M36.6373 12.272C35.5819 12.272 34.7526 12.5731 34.7526 12.5731L34.5265 13.9283C34.5265 13.9283 35.205 13.6271 36.2603 13.6271C36.788 13.6271 37.2403 13.7024 37.2403 14.1541C37.2403 14.4553 37.165 14.5306 37.165 14.5306H36.4865C35.1296 14.5306 33.6973 15.0576 33.6973 16.8645C33.6973 18.2949 34.6019 18.5961 35.205 18.5961C36.2603 18.5961 36.788 17.9185 36.8634 17.9185L36.788 18.5208H38.2203L38.8234 14.2294C38.8234 12.3473 37.165 12.272 36.6373 12.272ZM37.0142 15.7352C37.0142 15.961 36.8634 17.2409 35.9588 17.2409C35.5065 17.2409 35.3557 16.8645 35.3557 16.6386C35.3557 16.2622 35.5819 15.7352 36.788 15.7352C36.9388 15.7352 36.9388 15.7352 37.0142 15.7352Z" fill="#F8F7F3"/>
<path d="M40.0307 18.5201C40.483 15.9604 40.5584 13.8523 41.6892 14.2288C41.84 13.25 42.0661 12.7983 42.2169 12.4219H41.9153C41.2369 12.4219 40.6338 13.3253 40.6338 13.3253L40.7846 12.4972H39.2769L38.2969 18.5201H40.0307Z" fill="#F8F7F3"/>
</g>
</g>
</svg>
