<svg width="66" height="20" viewBox="0 0 66 20" fill="none" xmlns="http://www.w3.org/2000/svg">
<g id="mir">
<g id="Vector">
<path d="M58.5602 0.470703H46.1191C46.8439 4.56178 50.8298 8.41221 55.1782 8.41221H65.0827C65.2035 8.05123 65.2035 7.4496 65.2035 7.08862C65.2035 3.47885 62.1838 0.470703 58.5602 0.470703Z" fill="url(#paint0_linear_49_5001)"/>
<path d="M47.7108 9.20625V19.5302H53.9742V14.0573H59.486C62.4924 14.0573 65.1231 11.9427 65.9999 9.20625H47.7108Z" fill="#4FAD50"/>
<path d="M26.2402 0.470703V19.5303H31.623C31.623 19.5303 32.9687 19.5303 33.7027 18.1689C37.3728 10.8669 38.4738 8.63911 38.4738 8.63911H39.2078V19.5303H45.3246V0.470703H39.9418C39.9418 0.470703 38.5961 0.594474 37.8621 1.83211C34.8037 8.14406 33.091 11.3619 33.091 11.3619H32.357V0.470703H26.2402Z" fill="#4FAD50"/>
<path d="M0 19.5303V0.470703H6.13304C6.13304 0.470703 7.8503 0.470699 8.83159 3.1935C11.2848 10.3718 11.5301 11.3619 11.5301 11.3619C11.5301 11.3619 12.0208 9.62922 14.2287 3.1935C15.2099 0.470699 16.9272 0.470703 16.9272 0.470703H23.0602V19.5303H16.9272V9.25794H16.1912L12.7567 19.5303H10.0582L6.62371 9.25794H5.88774V19.5303H0Z" fill="#4FAD50"/>
</g>
</g>
<defs>
<linearGradient id="paint0_linear_49_5001" x1="-0.0743544" y1="10.1371" x2="65.8521" y2="10.1371" gradientUnits="userSpaceOnUse">
<stop stop-color="#27B1E6"/>
<stop offset="1" stop-color="#148ACA"/>
</linearGradient>
</defs>
</svg>
