<svg width="37" height="37" viewBox="0 0 37 37" fill="none" xmlns="http://www.w3.org/2000/svg">
<g id="37/ telegram">
<path id="Vector" fill-rule="evenodd" clip-rule="evenodd" d="M6.16667 0C2.76091 0 0 2.76091 0 6.16667V30.8333C0 34.2391 2.76091 37 6.16667 37H30.8333C34.2391 37 37 34.2391 37 30.8333V6.16667C37 2.76091 34.2391 0 30.8333 0H6.16667ZM27.1629 12.1373C27.3194 10.3648 25.4478 11.0947 25.4478 11.0947C24.0619 11.6685 22.6315 12.2516 21.1867 12.841C16.7232 14.6617 12.1126 16.5425 8.18446 18.3935C6.05263 19.1754 7.30042 19.9574 7.30042 19.9574L10.6805 21.0004C12.24 21.4696 13.072 20.9479 13.072 20.9479L20.3516 15.9953C22.9512 14.2228 22.3273 15.6826 21.7034 16.3079L16.2445 21.5217C15.412 22.2516 15.8282 22.8769 16.1925 23.19C17.2233 24.0994 19.7585 25.7634 20.8673 26.4911C21.1565 26.6809 21.3487 26.8071 21.3917 26.8395C21.6519 27.0481 23.0558 27.9861 23.9914 27.7779C24.9274 27.5693 25.0315 26.3702 25.0315 26.3702L26.2793 18.1849C26.466 16.7684 26.68 15.4066 26.8511 14.3173C27.0138 13.282 27.1377 12.4929 27.1629 12.1373Z" fill="#07745E"/>
</g>
</svg>
