<svg width="63" height="20" viewBox="0 0 63 20" fill="none" xmlns="http://www.w3.org/2000/svg">
<g id="visa">
<g id="Vector">
<path d="M58.7491 0.351562H54.7759C53.5747 0.351562 52.6507 0.713446 52.0963 1.88957L44.5195 18.8076H49.8787C49.8787 18.8076 50.8027 16.5459 50.9875 16.003C51.5419 16.003 56.8087 16.003 57.5479 16.003C57.7327 16.6363 58.1947 18.7172 58.1947 18.7172H62.9995L58.7491 0.351562ZM52.4659 12.2033C52.9279 11.1176 54.4987 7.04641 54.4987 7.04641C54.4987 7.13688 54.9607 5.96076 55.1455 5.32746L55.5151 6.95594C55.5151 6.95594 56.5315 11.389 56.7163 12.2937H52.4659V12.2033Z" fill="#3362AB"/>
<path d="M44.7224 13.2149C44.7224 17.0739 41.2612 19.6465 35.8872 19.6465C33.6101 19.6465 31.4241 19.1871 30.24 18.6358L30.9687 14.4093L31.6063 14.685C33.2458 15.42 34.3388 15.6957 36.3426 15.6957C37.8 15.6957 39.3484 15.1444 39.3484 13.858C39.3484 13.0311 38.7108 12.4798 36.707 11.561C34.7942 10.6422 32.2439 9.17212 32.2439 6.50758C32.2439 2.83235 35.7961 0.351562 40.8058 0.351562C42.7186 0.351562 44.3581 0.719086 45.36 1.17849L44.6313 5.22125L44.267 4.85372C43.3561 4.4862 42.172 4.11868 40.4414 4.11868C38.5287 4.21056 37.6178 5.03748 37.6178 5.77253C37.6178 6.59946 38.7108 7.24262 40.4414 8.06955C43.3561 9.44776 44.7224 11.0097 44.7224 13.2149Z" fill="#3362AB"/>
<path d="M0 0.727897L0.0904615 0.351562H7.87015C8.95569 0.351562 9.76985 0.727897 10.0412 1.95098L11.76 10.4185C10.0412 5.90249 6.06092 2.23323 0 0.727897Z" fill="#F9B50B"/>
<path d="M22.6791 0.442033L14.8491 18.8076H9.53906L5.03906 3.42757C8.27906 5.5084 10.9791 8.76536 11.9691 11.0271L12.5091 12.927L17.3691 0.351562H22.6791V0.442033Z" fill="#3362AB"/>
<path d="M25.1067 0.351562H30.24L26.9733 18.8076H21.84L25.1067 0.351562Z" fill="#3362AB"/>
</g>
</g>
</svg>
