<svg width="37" height="37" viewBox="0 0 37 37" fill="none" xmlns="http://www.w3.org/2000/svg">
<g id="37/ vk">
<path id="Vector" fill-rule="evenodd" clip-rule="evenodd" d="M6.16667 0C2.76091 0 0 2.76091 0 6.16667V30.8333C0 34.2391 2.76091 37 6.16667 37H30.8333C34.2391 37 37 34.2391 37 30.8333V6.16667C37 2.76091 34.2391 0 30.8333 0H6.16667ZM29.0679 12.2042C29.8267 12.2042 29.9982 12.5993 29.8267 13.1427V13.1408C29.5596 14.3868 27.3379 17.6886 26.6495 18.7117C26.5186 18.9062 26.4432 19.0184 26.4471 19.0184C26.1778 19.4626 26.08 19.6601 26.4471 20.1539C26.5801 20.3368 26.8623 20.6161 27.1848 20.9351C27.5154 21.2622 27.8883 21.6311 28.1858 21.9808C29.2635 23.2151 30.0965 24.2519 30.3167 24.9678C30.5128 25.6837 30.1698 26.0542 29.4351 26.0542H26.9125C26.2438 26.0542 25.8992 25.6671 25.1648 24.8422C24.85 24.4886 24.4635 24.0545 23.9491 23.536C22.4552 22.0791 21.7937 21.882 21.4266 21.882C20.912 21.882 20.7651 22.0054 20.7651 22.7458V25.042C20.7651 25.6591 20.5695 26.0296 18.9527 26.0296C16.2832 26.0296 13.3198 24.3983 11.2381 21.3632C8.1032 16.9193 7.24613 13.5618 7.24613 12.8951C7.24613 12.5246 7.3685 12.1792 8.1032 12.1792H10.6503C11.2872 12.1792 11.5339 12.4509 11.7767 13.1697C13.0255 16.7989 15.1072 19.9839 15.9643 19.9839C16.2851 19.9839 16.4297 19.835 16.4297 19.0203V15.2654C16.3693 14.1988 16.0009 13.7339 15.7278 13.3893C15.5584 13.1755 15.4256 13.008 15.4256 12.7717C15.4256 12.4755 15.6704 12.1792 16.0625 12.1792H20.0304C20.5695 12.1792 20.7651 12.4755 20.7651 13.1172V18.1791C20.7651 18.7221 20.9858 18.9196 21.1573 18.9196C21.4757 18.9196 21.745 18.7221 22.3328 18.1295C24.1452 16.0805 25.4431 12.9201 25.4431 12.9201C25.6146 12.5501 25.9085 12.2042 26.5449 12.2042H29.0679Z" fill="#07745E"/>
</g>
</svg>
