<svg width="37" height="37" viewBox="0 0 37 37" fill="none" xmlns="http://www.w3.org/2000/svg">
<g id="37/ whatsapp">
<g id="Vector">
<path fill-rule="evenodd" clip-rule="evenodd" d="M13.451 27.2362C15.0826 28.1997 16.9455 28.7136 18.8469 28.7136C24.6795 28.7136 29.433 23.973 29.4073 18.1404C29.4125 16.7491 29.1415 15.3707 28.61 14.085C28.0785 12.7993 27.2971 11.6319 26.3111 10.6504C24.3198 8.64626 21.6604 7.5414 18.834 7.5414C13.0014 7.5414 8.24792 12.2949 8.24792 18.1275C8.24938 20.1179 8.8103 22.0677 9.86667 23.7546L10.1236 24.1529L9.05729 28.0584L13.0656 27.0049L13.451 27.2362ZM24.2308 20.5942C24.4218 20.6872 24.5752 20.762 24.6538 20.7997C24.7173 20.8302 24.7759 20.8572 24.8295 20.8819C25.0472 20.9823 25.1855 21.0461 25.2576 21.1595C25.3476 21.3008 25.3476 21.9303 25.0778 22.6754C24.8208 23.4206 23.549 24.1015 22.9323 24.1914C22.3799 24.2685 21.6861 24.307 20.9281 24.0629C20.4656 23.9216 19.8747 23.7289 19.1167 23.3949C16.0706 22.0806 14.0227 19.0872 13.7138 18.6357C13.6996 18.615 13.6891 18.5996 13.6823 18.59L13.6798 18.5867C13.5162 18.3686 12.3847 16.8603 12.3847 15.3011C12.3847 13.855 13.0846 13.087 13.4149 12.7245C13.4426 12.6941 13.4677 12.6666 13.4896 12.6417C13.7851 12.3206 14.1191 12.2435 14.3375 12.2435H14.9542C14.9765 12.245 14.9998 12.2452 15.0241 12.2455C15.2092 12.2478 15.4464 12.2506 15.6736 12.7959C15.9306 13.4383 16.5729 15.0056 16.65 15.1598C16.7271 15.314 16.7785 15.4938 16.6757 15.7122C16.6669 15.7298 16.6584 15.7468 16.6501 15.7635C16.5613 15.9422 16.4955 16.0745 16.3545 16.239C16.3053 16.2964 16.2535 16.3591 16.2011 16.4224C16.0894 16.5573 15.9754 16.6952 15.8792 16.7914C15.7122 16.9584 15.558 17.1254 15.7378 17.4466C15.9306 17.7678 16.5601 18.8084 17.5108 19.6563C18.5433 20.5791 19.4444 20.9664 19.8847 21.1557C19.9594 21.1878 20.0208 21.2142 20.0674 21.2365C20.3885 21.4035 20.5812 21.3779 20.7611 21.1595C20.941 20.9539 21.5448 20.2345 21.7632 19.9133C21.9816 19.6049 22.1872 19.6563 22.4826 19.7591C22.6961 19.8464 23.642 20.3073 24.2308 20.5942Z" fill="#07745E"/>
<path fill-rule="evenodd" clip-rule="evenodd" d="M6.16667 0C2.76091 0 0 2.76091 0 6.16667V30.8333C0 34.2391 2.76091 37 6.16667 37H30.8333C34.2391 37 37 34.2391 37 30.8333V6.16667C37 2.76091 34.2391 0 30.8333 0H6.16667ZM23.7258 6.35952C25.272 7.00139 26.6749 7.9447 27.8528 9.13445C30.2552 11.5369 31.5785 14.7358 31.5785 18.1404C31.5785 25.1549 25.8615 30.872 18.8469 30.872C16.7142 30.872 14.6201 30.3324 12.7573 29.3174L6.0125 31.0904L7.81111 24.4869C6.70625 22.5598 6.11528 20.3758 6.11528 18.1275C6.11528 11.1129 11.8323 5.39591 18.8469 5.39591C20.521 5.39008 22.1796 5.71765 23.7258 6.35952Z" fill="#07745E"/>
</g>
</g>
</svg>
